<?xml version="1.0" encoding="iso-8859-1"?>
<!-- Generator: Adobe Illustrator 19.0.0, SVG Export Plug-In . SVG Version: 6.00 Build 0)  -->
<svg version="1.1" id="Capa_1" xmlns="http://www.w3.org/2000/svg" xmlns:xlink="http://www.w3.org/1999/xlink" x="0px" y="0px"
	 viewBox="0 0 512.007 512.007" style="enable-background:new 0 0 512.007 512.007;" xml:space="preserve">
<g>
	<g>
		<path d="M501.337,149.34h-74.667V31.157l16.792-11.754c4.813-3.375,6-10.021,2.604-14.854c-3.375-4.833-10.021-6-14.854-2.604
			L4.546,300.611c-4.813,3.375-6,10.021-2.604,14.854c2.062,2.958,5.375,4.542,8.729,4.542c2.125,0,4.25-0.625,6.125-1.938
			l47.208-33.046V405.34h-32c-5.896,0-10.667,4.771-10.667,10.667c0,5.896,4.771,10.667,10.667,10.667h10.667v74.667
			c0,5.896,4.771,10.667,10.667,10.667h448c5.896,0,10.667-4.771,10.667-10.667V160.007
			C512.004,154.111,507.233,149.34,501.337,149.34z M85.337,270.09l320-224v103.25h-32c-5.896,0-10.667,4.771-10.667,10.667
			c0,5.896,4.771,10.667,10.667,10.667h10.667v42.667h-96c-5.896,0-10.667,4.771-10.667,10.667s4.771,10.667,10.667,10.667h10.667
			v42.667h-96c-5.896,0-10.667,4.771-10.667,10.667s4.771,10.667,10.667,10.667h10.667v42.667h-96
			c-5.896,0-10.667,4.771-10.667,10.667c0,5.896,4.771,10.667,10.667,10.667h10.667v42.667H85.337V270.09z M490.671,490.674H64.004
			v-64h74.667c5.896,0,10.667-4.771,10.667-10.667v-53.333h74.667c5.896,0,10.667-4.771,10.667-10.667v-53.333h74.667
			c5.896,0,10.667-4.771,10.667-10.667v-53.333h74.667c5.896,0,10.667-4.771,10.667-10.667v-53.333h85.333V490.674z"/>
	</g>
</g>
<g>
</g>
<g>
</g>
<g>
</g>
<g>
</g>
<g>
</g>
<g>
</g>
<g>
</g>
<g>
</g>
<g>
</g>
<g>
</g>
<g>
</g>
<g>
</g>
<g>
</g>
<g>
</g>
<g>
</g>
</svg>
