<svg data-v-423bf9ae="" xmlns="http://www.w3.org/2000/svg" viewBox="0 0 425 112" class="iconLeftSlogan"><!----><defs data-v-423bf9ae=""><linearGradient data-v-423bf9ae="" gradientTransform="rotate(25)" id="75eb74d4-02cd-42e7-9a1d-92cdc4b8ab0f" x1="0%" y1="0%" x2="100%" y2="0%"><stop data-v-423bf9ae="" offset="0%" style="stop-color: rgb(8, 199, 214); stop-opacity: 1;"></stop><stop data-v-423bf9ae="" offset="100%" style="stop-color: rgb(2, 2, 62); stop-opacity: 1;"></stop></linearGradient></defs><!----><g data-v-423bf9ae="" id="bbb124a8-84f1-4711-a03b-a57d9da5fb1a" fill="#ffffff" transform="matrix(3.592814207119778,0,0,3.592814207119778,115.48455925269238,-0.5029933801906417)"><path d="M5.27 2.10L1.16 2.10L1.16 12.60L2.87 12.60L2.87 8.14L5.27 8.14C6.97 8.14 8.29 6.84 8.29 5.15C8.29 3.46 6.97 2.10 5.27 2.10ZM5.02 6.65L2.87 6.65L2.87 3.66L5.02 3.66C5.93 3.66 6.62 4.25 6.62 5.16C6.62 6.09 5.93 6.65 5.02 6.65ZM13.00 5.46C12.36 5.46 11.76 5.71 11.29 6.11L11.29 0.14L9.63 0.14L9.63 12.60L11.29 12.60L11.29 8.38C11.29 7.63 11.88 7.00 12.64 7.00C13.37 7.00 13.95 7.58 13.95 8.31L13.95 12.60L15.61 12.60L15.61 8.16C15.61 6.63 14.46 5.46 13.00 5.46ZM21.07 12.74C23.24 12.74 24.83 11.15 24.83 9.10C24.83 7.05 23.24 5.46 21.07 5.46C18.90 5.46 17.31 7.05 17.31 9.10C17.31 11.15 18.90 12.74 21.07 12.74ZM21.07 11.20C19.88 11.20 18.97 10.27 18.97 9.10C18.97 7.93 19.88 7.00 21.07 7.00C22.24 7.00 23.17 7.93 23.17 9.10C23.17 10.27 22.24 11.20 21.07 11.20ZM30.12 5.46C29.42 5.46 28.79 5.76 28.32 6.27L28.32 5.60L26.65 5.60L26.65 12.60L28.32 12.60L28.32 8.33C28.32 7.58 28.91 7.00 29.68 7.00C30.45 7.00 31.03 7.58 31.03 8.33L31.03 12.60L32.67 12.60L32.67 8.16C32.67 6.63 31.48 5.46 30.12 5.46ZM40.27 5.60L40.27 6.37C39.66 5.81 38.83 5.46 37.92 5.46C35.95 5.46 34.37 7.07 34.37 9.10C34.37 11.13 35.95 12.74 37.92 12.74C38.85 12.74 39.67 12.39 40.29 11.81L40.29 13.02C40.29 14.35 39.36 15.31 38.10 15.31C37.12 15.31 36.33 14.72 36.05 13.84L34.53 14.47C35.05 15.91 36.40 16.84 38.10 16.84C40.37 16.84 41.95 15.24 41.95 12.97L41.95 5.60ZM38.19 11.20C37.01 11.20 36.09 10.27 36.09 9.10C36.09 7.93 37.01 7.00 38.19 7.00C39.36 7.00 40.30 7.93 40.30 9.10C40.30 10.27 39.36 11.20 38.19 11.20ZM50.40 2.10L43.14 2.10L43.14 3.69L45.92 3.69L45.92 12.60L47.62 12.60L47.62 3.69L50.40 3.69ZM55.41 5.46C54.50 5.46 53.74 5.88 53.25 6.56L53.25 5.60L51.59 5.60L51.59 12.60L53.25 12.60L53.25 9.05C53.25 7.82 54.16 7.00 55.37 7.00C55.60 7.00 55.79 7.04 55.97 7.07L55.97 5.51C55.79 5.48 55.60 5.46 55.41 5.46ZM60.41 12.74C62.58 12.74 64.17 11.15 64.17 9.10C64.17 7.05 62.58 5.46 60.41 5.46C58.24 5.46 56.65 7.05 56.65 9.10C56.65 11.15 58.24 12.74 60.41 12.74ZM60.41 11.20C59.22 11.20 58.31 10.27 58.31 9.10C58.31 7.93 59.22 7.00 60.41 7.00C61.58 7.00 62.51 7.93 62.51 9.10C62.51 10.27 61.58 11.20 60.41 11.20ZM72.14 2.10L64.87 2.10L64.87 3.69L67.66 3.69L67.66 12.60L69.35 12.60L69.35 3.69L72.14 3.69ZM76.60 12.74C78.77 12.74 80.36 11.15 80.36 9.10C80.36 7.05 78.77 5.46 76.60 5.46C74.43 5.46 72.84 7.05 72.84 9.10C72.84 11.15 74.43 12.74 76.60 12.74ZM76.60 11.20C75.41 11.20 74.50 10.27 74.50 9.10C74.50 7.93 75.41 7.00 76.60 7.00C77.77 7.00 78.70 7.93 78.70 9.10C78.70 10.27 77.77 11.20 76.60 11.20ZM85.89 7.00L85.89 5.60L84.12 5.60L84.12 2.73L82.46 2.73L82.46 5.60L81.31 5.60L81.31 7.00L82.46 7.00L82.46 10.43C82.46 11.73 83.56 12.74 84.84 12.74C85.24 12.74 85.68 12.64 85.86 12.51L85.86 11.24L85.05 11.24C84.53 11.24 84.12 10.85 84.12 10.24L84.12 7.00Z"></path></g><!----><g data-v-423bf9ae="" id="c05ac3e0-4f1d-4a9f-a9de-1b7fd63ab249" transform="matrix(1.1111111111111112,0,0,1.1111111111111112,-5.399113443162712,0.44444444444444287)" stroke="none" fill="#ffffff"><path d="M94.844 54.281l-5.167-3.919-25.765 19.534-9.258-7.019 25.767-19.534-5.164-3.917-25.763 19.539-21.735-16.477-5.169 3.915 21.739 16.479-12.269 9.304-21.738-16.483-5.165 3.921L58.414 100l5.163-3.919-11.937-9.048 12.271-9.305 11.936 9.049 5.166-3.916-11.936-9.049 25.767-19.531zM46.478 83.116l-9.256-7.019 12.268-9.303 9.257 7.018-12.269 9.304z"></path><path d="M44.408 34.908l6.053 16.474 6.055-16.477c6.945-2.49 11.928-9.113 11.928-16.92C68.443 8.053 60.391 0 50.461 0c-9.935 0-17.988 8.053-17.988 17.985 0 7.808 4.982 14.434 11.935 16.923zm5.763-27.392l3.612 3.678V9.32h2.808v4.737l3.607 3.682h-2.407v8.723h-6.215V21.25h-2.809v5.212h-6.215v-8.723h-2.407L50.171 7.516z"></path></g><!----><g data-v-423bf9ae="" id="25c414cd-9dc5-4935-ad10-2a8d2de37166" fill="#ffffff" transform="matrix(0.7578034963919865,0,0,0.7578034963919865,119.22785561499683,58.143382175023895)"><path d="M0.94 9.74L0.56 9.90C1.19 11.77 2.24 12.71 3.71 12.71C4.62 12.71 5.32 12.45 5.78 11.93C6.25 11.41 6.48 10.77 6.48 10.01C6.48 9.66 6.42 9.35 6.31 9.06C6.19 8.78 6.06 8.55 5.92 8.37C5.77 8.19 5.57 8.02 5.31 7.86C5.04 7.70 4.83 7.58 4.67 7.50C4.51 7.43 4.28 7.34 4.00 7.22C3.97 7.21 3.85 7.16 3.65 7.08C3.46 7.01 3.34 6.96 3.29 6.94C3.24 6.91 3.14 6.87 2.97 6.80C2.80 6.73 2.69 6.67 2.64 6.64C2.59 6.60 2.50 6.54 2.37 6.45C2.24 6.37 2.15 6.30 2.10 6.24C2.05 6.18 1.99 6.10 1.90 6.00C1.82 5.90 1.76 5.80 1.73 5.70C1.70 5.61 1.67 5.50 1.64 5.38C1.61 5.25 1.60 5.12 1.60 4.98C1.60 4.41 1.79 3.95 2.19 3.62C2.59 3.29 3.08 3.12 3.67 3.12C4.80 3.12 5.58 3.77 6.02 5.07L6.43 4.90C6.22 4.23 5.88 3.69 5.42 3.29C4.95 2.89 4.37 2.69 3.68 2.69C2.99 2.69 2.39 2.90 1.88 3.33C1.37 3.76 1.12 4.33 1.12 5.04C1.12 5.39 1.19 5.71 1.34 5.99C1.48 6.27 1.70 6.51 1.98 6.71C2.27 6.91 2.52 7.07 2.75 7.17C2.98 7.28 3.28 7.41 3.64 7.55C3.92 7.65 4.11 7.72 4.21 7.77C4.32 7.82 4.49 7.90 4.73 8.02C4.97 8.13 5.15 8.24 5.26 8.34C5.36 8.45 5.49 8.58 5.63 8.75C5.78 8.92 5.88 9.11 5.94 9.32C5.99 9.54 6.02 9.78 6.02 10.05C6.02 10.72 5.83 11.27 5.45 11.68C5.08 12.09 4.51 12.29 3.75 12.29C2.52 12.29 1.58 11.44 0.94 9.74ZM15.93 7.48L20.27 7.48L20.27 7.08L15.93 7.08L15.93 3.21L20.55 3.21L20.55 2.80L15.51 2.80L15.51 12.60L20.55 12.60L20.55 12.19L15.93 12.19ZM33.15 2.45L28.88 12.60L29.37 12.60L30.65 9.52L35.66 9.52L36.93 12.60L37.42 12.60ZM33.15 3.50L35.46 9.07L30.84 9.07ZM46.31 2.80ZM45.89 2.80L45.89 12.60L46.31 12.60L46.31 8.48L47.87 8.48L50.99 12.60L51.53 12.60L48.34 8.47C49.24 8.41 49.95 8.15 50.49 7.67C51.03 7.20 51.30 6.52 51.30 5.64C51.30 4.71 50.99 4.00 50.39 3.52C49.78 3.04 48.98 2.80 47.99 2.80ZM46.31 3.21L47.99 3.21C48.86 3.21 49.56 3.41 50.08 3.83C50.60 4.24 50.86 4.85 50.86 5.64C50.86 6.44 50.60 7.04 50.08 7.45C49.56 7.87 48.86 8.08 47.99 8.08L46.31 8.08ZM59.84 7.70C59.84 6.33 60.22 5.22 60.98 4.38C61.74 3.53 62.74 3.11 63.99 3.11C65.19 3.11 66.24 3.54 67.14 4.41L67.14 3.81C66.29 3.06 65.24 2.69 63.99 2.69C62.64 2.69 61.53 3.16 60.67 4.09C59.81 5.03 59.37 6.23 59.37 7.70C59.37 9.17 59.81 10.37 60.67 11.30C61.53 12.24 62.64 12.71 63.99 12.71C65.24 12.71 66.29 12.34 67.14 11.59L67.14 11.03C66.28 11.87 65.23 12.29 63.99 12.29C62.74 12.29 61.74 11.87 60.98 11.03C60.22 10.18 59.84 9.07 59.84 7.70ZM76.52 2.80L76.52 12.60L76.94 12.60L76.94 7.62L83.17 7.62L83.17 12.60L83.59 12.60L83.59 2.80L83.17 2.80L83.17 7.18L76.94 7.18L76.94 2.80ZM104.73 7.48L109.07 7.48L109.07 7.08L104.73 7.08L104.73 3.21L109.35 3.21L109.35 2.80L104.31 2.80L104.31 12.60L109.35 12.60L109.35 12.19L104.73 12.19ZM121.95 2.45L117.68 12.60L118.17 12.60L119.45 9.52L124.46 9.52L125.73 12.60L126.22 12.60ZM121.95 3.50L124.26 9.07L119.64 9.07ZM134.37 9.74L133.99 9.90C134.62 11.77 135.67 12.71 137.14 12.71C138.06 12.71 138.75 12.45 139.22 11.93C139.68 11.41 139.92 10.77 139.92 10.01C139.92 9.66 139.86 9.35 139.74 9.06C139.62 8.78 139.49 8.55 139.35 8.37C139.20 8.19 139.00 8.02 138.74 7.86C138.48 7.70 138.27 7.58 138.10 7.50C137.94 7.43 137.72 7.34 137.44 7.22C137.40 7.21 137.28 7.16 137.09 7.08C136.89 7.01 136.77 6.96 136.72 6.94C136.68 6.91 136.57 6.87 136.40 6.80C136.23 6.73 136.12 6.67 136.07 6.64C136.02 6.60 135.93 6.54 135.80 6.45C135.67 6.37 135.58 6.30 135.53 6.24C135.49 6.18 135.42 6.10 135.34 6.00C135.25 5.90 135.20 5.80 135.16 5.70C135.13 5.61 135.10 5.50 135.07 5.38C135.04 5.25 135.03 5.12 135.03 4.98C135.03 4.41 135.23 3.95 135.63 3.62C136.02 3.29 136.51 3.12 137.10 3.12C138.23 3.12 139.02 3.77 139.45 5.07L139.86 4.90C139.65 4.23 139.32 3.69 138.85 3.29C138.39 2.89 137.81 2.69 137.12 2.69C136.43 2.69 135.83 2.90 135.32 3.33C134.81 3.76 134.55 4.33 134.55 5.04C134.55 5.39 134.63 5.71 134.77 5.99C134.92 6.27 135.13 6.51 135.41 6.71C135.70 6.91 135.96 7.07 136.19 7.17C136.41 7.28 136.71 7.41 137.07 7.55C137.35 7.65 137.55 7.72 137.65 7.77C137.75 7.82 137.92 7.90 138.17 8.02C138.41 8.13 138.58 8.24 138.69 8.34C138.80 8.45 138.92 8.58 139.07 8.75C139.21 8.92 139.31 9.11 139.37 9.32C139.43 9.54 139.45 9.78 139.45 10.05C139.45 10.72 139.26 11.27 138.89 11.68C138.51 12.09 137.94 12.29 137.19 12.29C135.95 12.29 135.02 11.44 134.37 9.74ZM148.88 2.80L148.88 12.60L149.30 12.60L149.30 2.80ZM159.17 7.48L163.51 7.48L163.51 7.08L159.17 7.08L159.17 3.21L163.79 3.21L163.79 2.80L158.75 2.80L158.75 12.60L163.79 12.60L163.79 12.19L159.17 12.19ZM173.59 2.80ZM173.17 2.80L173.17 12.60L173.59 12.60L173.59 8.48L175.14 8.48L178.26 12.60L178.81 12.60L175.62 8.47C176.51 8.41 177.23 8.15 177.77 7.67C178.30 7.20 178.57 6.52 178.57 5.64C178.57 4.71 178.27 4.00 177.66 3.52C177.05 3.04 176.26 2.80 175.27 2.80ZM173.59 3.21L175.27 3.21C176.13 3.21 176.83 3.41 177.35 3.83C177.87 4.24 178.14 4.85 178.14 5.64C178.14 6.44 177.87 7.04 177.35 7.45C176.83 7.87 176.13 8.08 175.27 8.08L173.59 8.08ZM197.43 3.21L199.95 3.21L199.95 12.60L200.37 12.60L200.37 3.21L202.89 3.21L202.89 2.80L197.43 2.80ZM211.43 2.80L211.43 12.60L211.85 12.60L211.85 7.62L218.08 7.62L218.08 12.60L218.50 12.60L218.50 2.80L218.08 2.80L218.08 7.18L211.85 7.18L211.85 2.80ZM231.24 2.45L226.97 12.60L227.46 12.60L228.73 9.52L233.74 9.52L235.02 12.60L235.51 12.60ZM231.24 3.50L233.55 9.07L228.93 9.07ZM250.91 2.80L250.91 11.79L243.42 2.45L243.42 12.60L243.84 12.60L243.84 3.61L251.33 12.95L251.33 2.80ZM271.91 7.48L276.25 7.48L276.25 7.08L271.91 7.08L271.91 3.21L276.53 3.21L276.53 2.80L271.49 2.80L271.49 12.60L276.53 12.60L276.53 12.19L271.91 12.19ZM289.13 12.03L285.35 2.80L284.86 2.80L289.13 12.95L293.40 2.80L292.91 2.80ZM302.29 7.48L306.63 7.48L306.63 7.08L302.29 7.08L302.29 3.21L306.91 3.21L306.91 2.80L301.87 2.80L301.87 12.60L306.91 12.60L306.91 12.19L302.29 12.19ZM316.71 2.80ZM316.29 2.80L316.29 12.60L316.71 12.60L316.71 8.48L318.26 8.48L321.38 12.60L321.93 12.60L318.74 8.47C319.63 8.41 320.35 8.15 320.89 7.67C321.42 7.20 321.69 6.52 321.69 5.64C321.69 4.71 321.39 4.00 320.78 3.52C320.18 3.04 319.38 2.80 318.39 2.80ZM316.71 3.21L318.39 3.21C319.26 3.21 319.95 3.41 320.47 3.83C321.00 4.24 321.26 4.85 321.26 5.64C321.26 6.44 321.00 7.04 320.47 7.45C319.95 7.87 319.26 8.08 318.39 8.08L316.71 8.08Z"></path></g></svg>