<svg data-v-423bf9ae="" xmlns="http://www.w3.org/2000/svg" viewBox="0 0 438 90" class="iconLeft"><!----><!----><!----><g data-v-423bf9ae="" id="4a5e79f5-a497-4f3f-a376-43e50970c96e" fill="white" transform="matrix(3.592814207119778,0,0,3.592814207119778,128.758637621833,14.497004712460726)"><path d="M5.27 2.10L1.16 2.10L1.16 12.60L2.87 12.60L2.87 8.14L5.27 8.14C6.97 8.14 8.29 6.84 8.29 5.15C8.29 3.46 6.97 2.10 5.27 2.10ZM5.02 6.65L2.87 6.65L2.87 3.66L5.02 3.66C5.93 3.66 6.62 4.25 6.62 5.16C6.62 6.09 5.93 6.65 5.02 6.65ZM13.00 5.46C12.36 5.46 11.76 5.71 11.29 6.11L11.29 0.14L9.63 0.14L9.63 12.60L11.29 12.60L11.29 8.38C11.29 7.63 11.88 7.00 12.64 7.00C13.37 7.00 13.95 7.58 13.95 8.31L13.95 12.60L15.61 12.60L15.61 8.16C15.61 6.63 14.46 5.46 13.00 5.46ZM21.07 12.74C23.24 12.74 24.83 11.15 24.83 9.10C24.83 7.05 23.24 5.46 21.07 5.46C18.90 5.46 17.31 7.05 17.31 9.10C17.31 11.15 18.90 12.74 21.07 12.74ZM21.07 11.20C19.88 11.20 18.97 10.27 18.97 9.10C18.97 7.93 19.88 7.00 21.07 7.00C22.24 7.00 23.17 7.93 23.17 9.10C23.17 10.27 22.24 11.20 21.07 11.20ZM30.12 5.46C29.42 5.46 28.79 5.76 28.32 6.27L28.32 5.60L26.65 5.60L26.65 12.60L28.32 12.60L28.32 8.33C28.32 7.58 28.91 7.00 29.68 7.00C30.45 7.00 31.03 7.58 31.03 8.33L31.03 12.60L32.67 12.60L32.67 8.16C32.67 6.63 31.48 5.46 30.12 5.46ZM40.27 5.60L40.27 6.37C39.66 5.81 38.83 5.46 37.92 5.46C35.95 5.46 34.37 7.07 34.37 9.10C34.37 11.13 35.95 12.74 37.92 12.74C38.85 12.74 39.67 12.39 40.29 11.81L40.29 13.02C40.29 14.35 39.36 15.31 38.10 15.31C37.12 15.31 36.33 14.72 36.05 13.84L34.53 14.47C35.05 15.91 36.40 16.84 38.10 16.84C40.37 16.84 41.95 15.24 41.95 12.97L41.95 5.60ZM38.19 11.20C37.01 11.20 36.09 10.27 36.09 9.10C36.09 7.93 37.01 7.00 38.19 7.00C39.36 7.00 40.30 7.93 40.30 9.10C40.30 10.27 39.36 11.20 38.19 11.20ZM50.40 2.10L43.14 2.10L43.14 3.69L45.92 3.69L45.92 12.60L47.62 12.60L47.62 3.69L50.40 3.69ZM55.41 5.46C54.50 5.46 53.74 5.88 53.25 6.56L53.25 5.60L51.59 5.60L51.59 12.60L53.25 12.60L53.25 9.05C53.25 7.82 54.16 7.00 55.37 7.00C55.60 7.00 55.79 7.04 55.97 7.07L55.97 5.51C55.79 5.48 55.60 5.46 55.41 5.46ZM60.41 12.74C62.58 12.74 64.17 11.15 64.17 9.10C64.17 7.05 62.58 5.46 60.41 5.46C58.24 5.46 56.65 7.05 56.65 9.10C56.65 11.15 58.24 12.74 60.41 12.74ZM60.41 11.20C59.22 11.20 58.31 10.27 58.31 9.10C58.31 7.93 59.22 7.00 60.41 7.00C61.58 7.00 62.51 7.93 62.51 9.10C62.51 10.27 61.58 11.20 60.41 11.20ZM72.14 2.10L64.87 2.10L64.87 3.69L67.66 3.69L67.66 12.60L69.35 12.60L69.35 3.69L72.14 3.69ZM76.60 12.74C78.77 12.74 80.36 11.15 80.36 9.10C80.36 7.05 78.77 5.46 76.60 5.46C74.43 5.46 72.84 7.05 72.84 9.10C72.84 11.15 74.43 12.74 76.60 12.74ZM76.60 11.20C75.41 11.20 74.50 10.27 74.50 9.10C74.50 7.93 75.41 7.00 76.60 7.00C77.77 7.00 78.70 7.93 78.70 9.10C78.70 10.27 77.77 11.20 76.60 11.20ZM85.89 7.00L85.89 5.60L84.12 5.60L84.12 2.73L82.46 2.73L82.46 5.60L81.31 5.60L81.31 7.00L82.46 7.00L82.46 10.43C82.46 11.73 83.56 12.74 84.84 12.74C85.24 12.74 85.68 12.64 85.86 12.51L85.86 11.24L85.05 11.24C84.53 11.24 84.12 10.85 84.12 10.24L84.12 7.00Z"></path></g><!----><g data-v-423bf9ae="" id="15468349-ee93-4d42-ac99-b55c61757ef1" transform="matrix(1.1292629953774471,0,0,1.1292629953774471,0.5368502311276444,-11.312277984298952)" stroke="none" fill="white"><path d="M84.107 72.352H15.893L0 89.85h100L84.107 72.352zM33.171 82.354H12.717l2.18-2.513h18.999l-.725 2.513zm6.182 0l.728-2.513h19.838l.728 2.513H39.353zm26.751-2.512h19.002l2.177 2.514H66.827l-.723-2.514zM51.166 18.255l-.094.001-.092-.001h.186z"></path><path d="M50.447 10.152c-11.112 0-20.121 9.009-20.121 20.122 0 8.734 5.573 16.146 13.349 18.93l6.771 18.431 6.777-18.431c7.771-2.785 13.346-10.196 13.346-18.93-.001-11.113-9.01-20.122-20.122-20.122zm7.589 19.786v9.056h-6.451v-5.413h-2.913v5.413h-6.456v-9.056h-2.499l10.411-10.613 3.744 3.818v-1.947h2.915v4.92l3.749 3.822h-2.5z"></path></g><!----></svg>